<svg xmlns="http://www.w3.org/2000/svg" version="1.1" width="839px" height="230px" style="shape-rendering:geometricPrecision; text-rendering:geometricPrecision; image-rendering:optimizeQuality; fill-rule:evenodd; clip-rule:evenodd" xmlns:xlink="http://www.w3.org/1999/xlink">
<g><path style="opacity:0.981" fill="#8bc34a" d="M -0.5,-0.5 C 31.8333,-0.5 64.1667,-0.5 96.5,-0.5C 146.956,2.79178 168.456,29.4584 161,79.5C 154.277,97.461 141.444,108.294 122.5,112C 151.301,118.644 165.967,136.81 166.5,166.5C 165.043,204.622 145.377,225.622 107.5,229.5C 71.5,229.5 35.5,229.5 -0.5,229.5C -0.5,152.833 -0.5,76.1667 -0.5,-0.5 Z M 43.5,42.5 C 63.2211,42.0493 82.8878,42.5493 102.5,44C 116.105,48.7 121.272,58.2 118,72.5C 115.932,80.9013 110.766,86.4013 102.5,89C 82.8795,90.4376 63.2129,90.9376 43.5,90.5C 43.5,74.5 43.5,58.5 43.5,42.5 Z M 43.5,133.5 C 62.5029,133.333 81.5029,133.5 100.5,134C 114.495,136.997 121.495,145.663 121.5,160C 120.449,177.382 111.116,186.382 93.5,187C 76.8367,187.5 60.17,187.667 43.5,187.5C 43.5,169.5 43.5,151.5 43.5,133.5 Z"/></g>
<g><path style="opacity:0.973" fill="#8bc34a" d="M 218.5,-0.5 C 234.167,-0.5 249.833,-0.5 265.5,-0.5C 285.538,47.8445 307.038,94.5111 330,139.5C 330.5,169.498 330.667,199.498 330.5,229.5C 315.833,229.5 301.167,229.5 286.5,229.5C 286.667,199.831 286.5,170.165 286,140.5C 263.489,93.4782 240.989,46.4782 218.5,-0.5 Z"/></g>
<g><path style="opacity:0.965" fill="#ffffff" d="M 351.5,-0.5 C 366.833,-0.5 382.167,-0.5 397.5,-0.5C 387.564,22.0421 377.064,44.3755 366,66.5C 351.241,67.6567 336.408,67.8233 321.5,67C 331.641,44.5526 341.641,22.0526 351.5,-0.5 Z"/></g>
<g><path style="opacity:0.978" fill="#8bc34a" d="M 446.5,-0.5 C 502.833,-0.5 559.167,-0.5 615.5,-0.5C 615.5,13.8333 615.5,28.1667 615.5,42.5C 594.5,42.5 573.5,42.5 552.5,42.5C 552.5,104.833 552.5,167.167 552.5,229.5C 537.833,229.5 523.167,229.5 508.5,229.5C 508.5,167.167 508.5,104.833 508.5,42.5C 487.833,42.5 467.167,42.5 446.5,42.5C 446.5,28.1667 446.5,13.8333 446.5,-0.5 Z"/></g>
<g><path style="opacity:0.97" fill="#ffffff" d="M 684.5,-0.5 C 735.833,-0.5 787.167,-0.5 838.5,-0.5C 838.5,13.8333 838.5,28.1667 838.5,42.5C 787.167,42.5 735.833,42.5 684.5,42.5C 684.5,28.1667 684.5,13.8333 684.5,-0.5 Z"/></g>
<g><path style="opacity:0.989" fill="#ffffff" d="M 684.5,94.5 C 730.167,94.5 775.833,94.5 821.5,94.5C 821.5,108.5 821.5,122.5 821.5,136.5C 775.833,136.5 730.167,136.5 684.5,136.5C 684.5,122.5 684.5,108.5 684.5,94.5 Z"/></g>
<g><path style="opacity:0.989" fill="#ffffff" d="M 838.5,187.5 C 838.5,201.5 838.5,215.5 838.5,229.5C 787.167,229.5 735.833,229.5 684.5,229.5C 684.5,215.5 684.5,201.5 684.5,187.5C 735.833,187.5 787.167,187.5 838.5,187.5 Z"/></g>
</svg>
